# xmcd CD database file
#
# Track frame offsets:
#	150
#	33302
#	88561
#	159678
#	203529
#	250197
#	285269
#	305159
#
# Disc length: 4546 seconds
#
# Revision: 1
# Processed by: cddbd v1.5.2PL0 Copyright (c) Steve Scherf et al.
# Submitted via: CDex 1.79
#
DISCID=6111c008
DTITLE=St. German -  Boulevard 
DYEAR=1995
DGENRE=Jazz
TTITLE0=St. German - Deep in it
TTITLE1=St. German - Thank u mum (4everthing you did)
TTITLE2=St. German - Street Scene (4 Shazz)
TTITLE3=St. German - Easy to Remember
TTITLE4=St. German - Sentimental mood
TTITLE5=St. German - What`s new ?
TTITLE6=St. German - Dub experience II
TTITLE7=St. German - Forget it
EXTD=YEAR: 1995
EXTT0=
EXTT1=
EXTT2=
EXTT3=
EXTT4=
EXTT5=
EXTT6=
EXTT7=
PLAYORDER=
